<?xml version="1.0" standalone="no"?>
<!DOCTYPE svg PUBLIC "-//W3C//DTD SVG 20010904//EN"
 "http://www.w3.org/TR/2001/REC-SVG-20010904/DTD/svg10.dtd">
<svg version="1.0" xmlns="http://www.w3.org/2000/svg"
 width="200.000000pt" height="86.000000pt" viewBox="0 0 200.000000 86.000000"
 preserveAspectRatio="xMidYMid meet">

<g transform="translate(0.000000,86.000000) scale(0.100000,-0.100000)"
fill="#000000" stroke="none">
<path d="M193 810 c-36 -15 -27 -17 30 -9 125 18 262 -37 305 -121 27 -54 28
-120 3 -175 -23 -51 -96 -117 -167 -150 -30 -14 -54 -27 -54 -29 0 -8 76 17
120 39 131 67 187 208 128 323 -26 52 -94 104 -156 122 -45 12 -179 12 -209 0z"/>
<path d="M198 780 c-52 -9 -124 -45 -132 -67 -4 -9 6 -7 33 6 59 31 158 44
225 32 114 -21 176 -82 176 -172 0 -32 3 -40 10 -29 19 29 11 103 -14 141 -45
67 -185 108 -298 89z"/>
<path d="M150 714 c-30 -8 -62 -22 -70 -30 -13 -14 -12 -14 14 -4 16 6 31 8
35 5 3 -3 -3 -36 -13 -73 -74 -269 -77 -286 -73 -367 3 -71 21 -145 31 -134 2
2 -1 29 -7 58 -13 69 1 177 43 313 16 54 34 125 41 158 6 33 15 58 19 55 8 -5
-11 -129 -33 -220 -9 -33 -18 -76 -22 -95 l-6 -35 16 27 c26 47 74 201 82 268
l8 65 55 -4 c30 -2 72 -10 93 -18 40 -16 87 -65 87 -90 0 -31 -49 -98 -97
-134 -72 -54 -156 -109 -161 -105 -2 2 6 35 18 73 14 43 23 103 26 163 l4 95
-14 -65 c-8 -36 -27 -105 -42 -155 -42 -142 -43 -138 8 -168 23 -14 81 -57
127 -96 46 -39 85 -71 87 -71 9 0 1 13 -47 70 -53 63 -129 120 -161 120 -34 0
-18 15 58 54 144 74 214 145 214 220 0 31 -7 45 -38 76 -60 60 -163 76 -282
44z"/>
<path d="M620 395 c0 -103 4 -165 10 -165 6 0 10 27 10 60 0 53 2 60 19 60 16
0 22 -11 32 -60 6 -33 16 -60 21 -60 5 0 6 16 1 38 -4 20 -7 54 -5 75 9 148 7
189 -12 203 -11 8 -32 14 -48 14 l-28 0 0 -165z m68 123 c7 -7 12 -36 12 -65
0 -41 -4 -54 -19 -63 -37 -19 -41 -12 -41 65 0 66 2 75 18 75 10 0 23 -5 30
-12z"/>
<path d="M1120 546 c0 -8 5 -18 10 -21 6 -3 10 3 10 14 0 12 -4 21 -10 21 -5
0 -10 -6 -10 -14z"/>
<path d="M1330 395 l0 -165 34 0 c18 0 38 6 44 13 7 7 11 65 11 142 -1 148
-10 175 -59 175 l-30 0 0 -165z m59 121 c7 -8 11 -34 9 -58 -3 -39 -6 -43 -30
-46 -27 -3 -28 -2 -28 51 0 29 3 57 7 60 11 11 30 8 42 -7z m15 -168 c15 -42
-3 -82 -37 -86 -26 -3 -27 -2 -27 51 0 29 3 57 7 61 15 15 48 0 57 -26z"/>
<path d="M759 453 c-21 -25 -19 -197 2 -219 13 -12 21 -14 37 -5 25 13 38 96
27 168 -10 71 -36 93 -66 56z m39 -25 c19 -19 16 -152 -4 -169 -24 -20 -34 4
-34 83 0 91 10 114 38 86z"/>
<path d="M868 463 c-16 -4 -18 -18 -18 -119 0 -69 4 -114 10 -114 6 0 10 40
10 99 0 98 9 126 33 102 6 -6 14 -55 17 -108 l7 -98 1 101 c2 78 5 103 16 107
26 10 35 -17 39 -114 l3 -94 2 111 c2 122 -7 146 -47 125 -13 -7 -22 -8 -26
-1 -6 10 -17 11 -47 3z"/>
<path d="M1033 463 c-22 -8 -15 -32 8 -26 23 6 39 -10 39 -42 0 -14 -10 -24
-30 -32 -28 -11 -30 -14 -30 -65 0 -70 7 -79 53 -71 31 5 37 9 30 22 -4 9 -9
52 -10 96 -5 124 -12 138 -60 118z m47 -162 c0 -41 -25 -64 -42 -39 -19 30 -5
78 23 78 15 0 19 -7 19 -39z"/>
<path d="M1188 463 c-16 -4 -18 -18 -16 -121 l2 -117 5 97 c6 98 19 134 42
111 6 -6 15 -55 19 -110 l7 -98 2 103 c1 131 -7 149 -61 135z"/>
<path d="M1463 463 c-22 -8 -15 -32 8 -26 23 6 39 -10 39 -42 0 -14 -10 -24
-30 -32 -28 -11 -30 -14 -30 -65 0 -70 7 -79 53 -71 31 5 37 9 30 22 -4 9 -9
52 -10 96 -5 124 -12 138 -60 118z m47 -162 c0 -41 -25 -64 -42 -39 -19 30 -5
78 23 78 15 0 19 -7 19 -39z"/>
<path d="M1573 463 c-22 -4 -23 -8 -23 -119 0 -69 4 -114 10 -114 6 0 10 40
10 99 0 83 3 100 17 105 26 10 33 -12 33 -111 0 -63 4 -93 11 -93 9 0 10 30 7
105 -5 95 -17 138 -37 134 -3 -1 -16 -4 -28 -6z"/>
<path d="M1679 453 c-9 -10 -15 -47 -17 -97 -3 -93 11 -132 46 -129 19 2 21
-3 25 -55 2 -31 4 23 5 121 l2 177 -24 0 c-13 0 -30 -7 -37 -17z m49 -97 c3
-83 -9 -116 -34 -95 -18 15 -19 150 -2 167 24 24 33 5 36 -72z"/>
<path d="M1891 451 c-18 -32 -14 -197 5 -215 19 -20 25 -20 50 -1 18 14 18 14
-8 15 -29 0 -48 24 -48 59 0 17 6 21 35 21 35 0 35 1 35 43 0 74 -44 125 -69
78z m43 -27 c3 -9 6 -27 6 -40 0 -19 -5 -24 -25 -24 -28 0 -34 25 -15 61 13
23 26 24 34 3z"/>
<path d="M1120 345 c0 -70 4 -115 10 -115 6 0 10 45 10 115 0 70 -4 115 -10
115 -6 0 -10 -45 -10 -115z"/>
<path d="M1772 350 c3 -118 9 -131 54 -122 24 4 24 5 22 121 l-2 116 -5 -98
c-4 -70 -10 -100 -21 -107 -25 -16 -30 0 -30 101 0 65 -4 99 -11 99 -7 0 -10
-35 -7 -110z"/>
<path d="M298 368 l-67 -31 42 -27 c23 -15 78 -65 122 -110 44 -45 97 -91 119
-102 l39 -20 -44 52 c-48 57 -171 166 -206 183 -31 14 -29 20 17 46 33 18 60
41 48 41 -2 0 -33 -14 -70 -32z"/>
<path d="M133 238 l-2 -63 15 43 c9 23 20 42 26 42 6 0 48 -38 94 -85 98 -99
161 -135 248 -142 45 -3 57 -2 46 6 -8 6 -24 11 -36 11 -58 0 -117 34 -212
122 -78 72 -153 128 -174 128 -2 0 -4 -28 -5 -62z"/>
<path d="M91 174 c-1 -40 4 -67 14 -80 15 -18 15 -18 9 9 -3 15 -10 51 -14 80
l-8 52 -1 -61z"/>
<path d="M537 59 c19 -6 40 -5 55 0 18 8 12 10 -32 9 -50 0 -52 -1 -23 -9z"/>
</g>
</svg>
